<svg width="281" height="132" viewBox="0 0 281 132" fill="none" xmlns="http://www.w3.org/2000/svg">
<path d="M258.9 70.7626L250.6 71.6626L242.4 72.4626L242.3 71.5626V70.6626L250.6 70.7626H258.9Z" fill="#00B9F2"/>
<path fill-rule="evenodd" clip-rule="evenodd" d="M1 47.5625H8.19995V54.1626C10.4666 51.4959 13.1 49.5292 16.1 48.2625C19.1 46.9959 22.5334 46.3625 26.4 46.3625C30.6667 46.3625 34.4666 47.1625 37.7999 48.7625C41.1333 50.3625 43.7333 52.6292 45.6 55.5625C46.9333 57.6292 47.9 60.0625 48.5 62.8625C49.1 65.6625 49.4 69.7959 49.4 75.2625V105.463H42.1V73.0625C42.1 66.1959 40.7666 61.2292 38.1 58.1626C35.5 55.0959 31.3333 53.5625 25.6 53.5625C22.2 53.5625 19.2333 54.2292 16.7 55.5625C14.1666 56.8959 12.1666 58.8292 10.7 61.3625C9.76662 62.9625 9.13326 64.7625 8.79993 66.7625C8.39993 68.7625 8.19995 72.2959 8.19995 77.3625V105.463H1V47.5625ZM118 78.9625H65.7C66.1666 85.2292 68.4666 90.3292 72.6 94.2625C76.6666 98.1292 81.7667 100.063 87.9 100.063C92.3 100.063 96.2333 98.9292 99.7 96.6626C103.167 94.3959 105.833 91.2625 107.7 87.2625H116.2C113.533 93.6625 109.767 98.5625 104.9 101.963C100.1 105.429 94.5333 107.163 88.2 107.163C79.7333 107.163 72.5999 104.163 66.7999 98.1626C60.9333 92.1626 58 84.9292 58 76.4625C58 67.6625 60.8666 60.3959 66.6 54.6626C72.2666 48.8626 79.5667 45.9625 88.5 45.9625C97.1667 45.9625 104.267 48.9625 109.8 54.9625C115.267 60.9625 118 68.7625 118 78.3625V78.9625ZM109.8 72.7625C108.4 66.2292 105.8 61.3292 102 58.0625C98.2667 54.7292 93.4 53.0625 87.4 53.0625C81.7334 53.0625 76.9666 54.8292 73.1 58.3625C69.1666 61.8959 66.7667 66.6959 65.9 72.7625H109.8ZM126.6 47.6626H133.8V54.2625C136.067 51.5959 138.7 49.6625 141.7 48.4625C144.7 47.1292 148.133 46.4959 152 46.5625C156.267 46.5625 160.067 47.3292 163.4 48.8625C166.733 50.4625 169.333 52.7292 171.2 55.6626C172.533 57.7292 173.5 60.1625 174.1 62.9625C174.7 65.7625 175 69.8959 175 75.3625V105.563H167.7V73.1626C167.7 66.2959 166.367 61.3292 163.7 58.2625C161.1 55.1959 156.933 53.6626 151.2 53.6626C147.8 53.6626 144.833 54.3292 142.3 55.6626C139.767 56.9959 137.767 58.9292 136.3 61.4625C135.367 63.0625 134.733 64.8625 134.4 66.8625C134 68.8625 133.8 72.3959 133.8 77.4625V105.563H126.6V47.6626ZM183.6 76.7625C183.6 68.2292 186.533 60.9625 192.4 54.9625C198.2 48.8959 205.1 45.8625 213.1 45.8625C221.433 45.8625 228.567 48.8292 234.5 54.7625C240.433 60.6959 243.4 67.7625 243.4 75.9625C243.4 84.6292 240.5 91.9959 234.7 98.0625C228.9 104.196 221.867 107.263 213.6 107.263C205.267 107.263 198.167 104.263 192.3 98.2625C186.5 92.2625 183.6 85.0959 183.6 76.7625ZM191.4 76.5625C191.4 83.2959 193.533 88.8959 197.8 93.3625C202.067 97.8959 207.333 100.163 213.6 100.163C219.8 100.163 225.033 97.8959 229.3 93.3625C233.5 88.8959 235.6 83.2959 235.6 76.5625C235.6 69.6959 233.467 64.0626 229.2 59.6626C224.933 55.2626 219.533 53.0625 213 53.0625C207.067 53.0625 202 55.3292 197.8 59.8625C193.533 64.3292 191.4 69.8959 191.4 76.5625Z" fill="white" stroke="white" stroke-width="0.9" stroke-miterlimit="100"/>
<path d="M233 100.463L238.8 105.463L244.6 110.463L244 111.163L243.4 111.763L238.2 106.063L233 100.463Z" fill="#00B9F2"/>
<path d="M221.8 119.062L231.4 118.562L241.1 118.062V119.062V120.163L231.4 119.663L221.8 119.062Z" fill="#00B9F2"/>
<path d="M196.1 48.7625L190.6 43.4625L185 38.1625L185.6 37.5625L186.2 36.9625L191.2 42.8625L196.1 48.7625Z" fill="#00B9F2"/>
<path d="M199.2 11.4625L193.5 16.5625L187.7 21.6625L187.2 20.9625L186.7 20.3625L192.9 15.8625L199.2 11.4625Z" fill="#00B9F2"/>
<path d="M205 15.9625C200.8 14.1625 198.8 9.2625 200.6 5.06249C202.4 0.862495 207.3 -1.1375 211.5 0.662501C215.8 2.4625 217.7 7.2625 216 11.5625C214.2 15.7625 209.3 17.7625 205 15.9625Z" fill="#00B9F2"/>
<path d="M205 15.9625C200.8 14.1625 198.8 9.2625 200.6 5.06249C202.4 0.862495 207.3 -1.1375 211.5 0.662501C215.8 2.4625 217.7 7.2625 216 11.5625C214.2 15.7625 209.3 17.7625 205 15.9625Z" fill="#00B9F2"/>
<path d="M206 13.6626C203 12.4626 201.7 8.96261 202.9 6.06261C204.2 3.06261 207.6 1.66261 210.6 2.96261C213.5 4.16261 214.9 7.56261 213.7 10.5626C212.4 13.5626 209 14.9626 206 13.6626Z" fill="white"/>
<path d="M171.3 39.9624C164.2 36.9624 160.9 28.8625 163.9 21.7625C166.9 14.6625 175.1 11.3625 182.2 14.3625C189.2 17.3625 192.6 25.5625 189.6 32.5625C186.6 39.6625 178.4 42.9624 171.3 39.9624Z" fill="#00B9F2"/>
<path d="M171.3 39.9624C164.2 36.9624 160.9 28.8625 163.9 21.7625C166.9 14.6625 175.1 11.3625 182.2 14.3625C189.2 17.3625 192.6 25.5625 189.6 32.5625C186.6 39.6625 178.4 42.9624 171.3 39.9624Z" fill="#00B9F2"/>
<path d="M172.9 36.1626C168 34.0626 165.6 28.3626 167.7 23.3626C169.8 18.3626 175.6 16.0626 180.5 18.1626C185.5 20.2626 187.8 25.9625 185.7 30.9625C183.6 35.9625 177.9 38.2626 172.9 36.1626Z" fill="white"/>
<path d="M210.1 109.963L210.4 115.063L210.7 120.063H210.1H209.6L209.8 115.063L210.1 109.963Z" fill="#00B9F2"/>
<path d="M210.4 119.262C213.7 119.262 216.4 121.962 216.4 125.262C216.4 128.562 213.7 131.262 210.4 131.262C207.1 131.262 204.4 128.562 204.4 125.262C204.4 121.962 207.1 119.262 210.4 119.262Z" fill="#00B9F2"/>
<path d="M210.4 121.062C212.7 121.062 214.6 122.963 214.6 125.263C214.6 127.563 212.7 129.462 210.4 129.462C208 129.462 206.2 127.563 206.2 125.263C206.2 122.963 208 121.062 210.4 121.062Z" fill="white"/>
<path d="M255.9 101.463L261.1 89.4625L266.3 77.4625L267.6 78.0625L268.9 78.6625L262.4 90.0625L255.9 101.463Z" fill="#00B9F2"/>
<path d="M268.699 60.3624C274.099 59.1624 279.399 62.6624 280.599 68.0624C281.699 73.4624 278.299 78.7624 272.899 79.8624C267.499 81.0624 262.199 77.5624 260.999 72.2624C259.899 66.8624 263.299 61.4624 268.699 60.3624Z" fill="#00B9F2"/>
<path d="M269.3 63.2625C273.1 62.4625 276.8 64.8625 277.6 68.6625C278.4 72.4625 276 76.1625 272.3 76.9625C268.5 77.7625 264.8 75.3625 263.9 71.5625C263.1 67.7625 265.5 64.0625 269.3 63.2625Z" fill="white"/>
<path d="M249.5 106.263C256 104.863 262.4 108.963 263.8 115.463C265.2 122.063 261.1 128.463 254.6 129.863C248 131.263 241.6 127.063 240.2 120.563C238.8 114.063 243 107.663 249.5 106.263Z" fill="#00B9F2"/>
<path d="M250.3 109.763C254.8 108.763 259.3 111.663 260.3 116.263C261.3 120.863 258.4 125.362 253.8 126.362C249.2 127.262 244.7 124.362 243.8 119.862C242.8 115.262 245.7 110.763 250.3 109.763Z" fill="white"/>
<path d="M264.3 61.5625L253.6 51.4624L242.9 41.4624L244.1 40.3625L245.2 39.2625L254.7 50.3625L264.3 61.5625Z" fill="#00B9F2"/>
<path d="M229.5 28.6625L221.5 21.1625L213.4 13.6625L214.3 12.7625L215.2 11.9625L222.3 20.3625L229.5 28.6625Z" fill="#00B9F2"/>
<path d="M230.5 50.9624L235 45.1625L239.4 39.2625L240 39.7625L240.6 40.3625L235.6 45.6625L230.5 50.9624Z" fill="#00B9F2"/>
<path d="M241 21.7625C246.4 20.6625 251.7 24.0625 252.9 29.4625C254 34.8625 250.6 40.1625 245.2 41.3625C239.8 42.4625 234.5 39.0625 233.3 33.6625C232.2 28.2625 235.6 22.9625 241 21.7625Z" fill="#00B9F2"/>
<path d="M241.6 24.7625C245.4 23.8625 249.1 26.3625 249.9 30.0625C250.8 33.8625 248.4 37.5625 244.6 38.4625C240.8 39.2625 237.1 36.8625 236.3 33.0625C235.4 29.2625 237.9 25.5625 241.6 24.7625Z" fill="white"/>
</svg>
