<svg width="400" height="400" viewBox="0 0 400 400" fill="none" xmlns="http://www.w3.org/2000/svg">
<rect width="400" height="400" fill="white"/>
<path d="M317.9 204.763L309.6 205.663L301.4 206.463L301.3 205.563V204.663L309.6 204.763H317.9Z" fill="#00B9F2"/>
<path fill-rule="evenodd" clip-rule="evenodd" d="M60 181.563H67.2V188.163C69.4666 185.496 72.1 183.529 75.1 182.263C78.1 180.996 81.5334 180.363 85.4 180.363C89.6667 180.363 93.4666 181.163 96.7999 182.763C100.133 184.363 102.733 186.629 104.6 189.563C105.933 191.629 106.9 194.063 107.5 196.863C108.1 199.663 108.4 203.796 108.4 209.263V239.463H101.1V207.063C101.1 200.196 99.7666 195.229 97.1 192.163C94.5 189.096 90.3333 187.563 84.6 187.563C81.2 187.563 78.2333 188.229 75.7 189.563C73.1666 190.896 71.1666 192.829 69.7 195.363C68.7666 196.963 68.1333 198.763 67.7999 200.763C67.3999 202.763 67.2 206.296 67.2 211.363V239.463H60V181.563ZM177 212.963H124.7C125.167 219.229 127.467 224.329 131.6 228.263C135.667 232.129 140.767 234.063 146.9 234.063C151.3 234.063 155.233 232.929 158.7 230.663C162.167 228.396 164.833 225.263 166.7 221.263H175.2C172.533 227.663 168.767 232.563 163.9 235.963C159.1 239.429 153.533 241.163 147.2 241.163C138.733 241.163 131.6 238.163 125.8 232.163C119.933 226.163 117 218.929 117 210.463C117 201.663 119.867 194.396 125.6 188.663C131.267 182.863 138.567 179.963 147.5 179.963C156.167 179.963 163.267 182.963 168.8 188.963C174.267 194.963 177 202.763 177 212.363V212.963ZM168.8 206.763C167.4 200.229 164.8 195.329 161 192.063C157.267 188.729 152.4 187.063 146.4 187.063C140.733 187.063 135.967 188.829 132.1 192.363C128.167 195.896 125.767 200.696 124.9 206.763H168.8ZM185.6 181.663H192.8V188.263C195.067 185.596 197.7 183.663 200.7 182.463C203.7 181.129 207.133 180.496 211 180.563C215.267 180.563 219.067 181.329 222.4 182.863C225.733 184.463 228.333 186.729 230.2 189.663C231.533 191.729 232.5 194.163 233.1 196.963C233.7 199.763 234 203.896 234 209.363V239.563H226.7V207.163C226.7 200.296 225.367 195.329 222.7 192.263C220.1 189.196 215.933 187.663 210.2 187.663C206.8 187.663 203.833 188.329 201.3 189.663C198.767 190.996 196.767 192.929 195.3 195.463C194.367 197.063 193.733 198.863 193.4 200.863C193 202.863 192.8 206.396 192.8 211.463V239.563H185.6V181.663ZM242.6 210.763C242.6 202.229 245.533 194.963 251.4 188.963C257.2 182.896 264.1 179.863 272.1 179.863C280.433 179.863 287.567 182.829 293.5 188.763C299.433 194.696 302.4 201.763 302.4 209.963C302.4 218.629 299.5 225.996 293.7 232.063C287.9 238.196 280.867 241.263 272.6 241.263C264.267 241.263 257.167 238.263 251.3 232.263C245.5 226.263 242.6 219.096 242.6 210.763ZM250.4 210.563C250.4 217.296 252.533 222.896 256.8 227.363C261.067 231.896 266.333 234.163 272.6 234.163C278.8 234.163 284.033 231.896 288.3 227.363C292.5 222.896 294.6 217.296 294.6 210.563C294.6 203.696 292.467 198.063 288.2 193.663C283.933 189.263 278.533 187.063 272 187.063C266.067 187.063 261 189.329 256.8 193.863C252.533 198.329 250.4 203.896 250.4 210.563Z" fill="#102694" stroke="#102694" stroke-width="0.9" stroke-miterlimit="100"/>
<path d="M292 234.463L297.8 239.463L303.6 244.463L303 245.163L302.4 245.763L297.2 240.063L292 234.463Z" fill="#00B9F2"/>
<path d="M280.8 253.062L290.4 252.562L300.1 252.062V253.062V254.163L290.4 253.663L280.8 253.062Z" fill="#00B9F2"/>
<path d="M255.1 182.763L249.6 177.463L244 172.163L244.6 171.563L245.2 170.963L250.2 176.863L255.1 182.763Z" fill="#00B9F2"/>
<path d="M258.2 145.463L252.5 150.563L246.7 155.663L246.2 154.963L245.7 154.363L251.9 149.863L258.2 145.463Z" fill="#00B9F2"/>
<path d="M264 149.962C259.8 148.162 257.8 143.262 259.6 139.062C261.4 134.862 266.3 132.863 270.5 134.663C274.8 136.463 276.7 141.262 275 145.562C273.2 149.762 268.3 151.762 264 149.962Z" fill="#00B9F2"/>
<path d="M264 149.962C259.8 148.162 257.8 143.262 259.6 139.062C261.4 134.862 266.3 132.863 270.5 134.663C274.8 136.463 276.7 141.262 275 145.562C273.2 149.762 268.3 151.762 264 149.962Z" fill="#00B9F2"/>
<path d="M265 147.663C262 146.463 260.7 142.963 261.9 140.063C263.2 137.063 266.6 135.663 269.6 136.963C272.5 138.163 273.9 141.563 272.7 144.563C271.4 147.563 268 148.963 265 147.663Z" fill="white"/>
<path d="M230.3 173.962C223.2 170.962 219.9 162.862 222.9 155.762C225.9 148.662 234.1 145.362 241.2 148.362C248.2 151.362 251.6 159.562 248.6 166.562C245.6 173.662 237.4 176.962 230.3 173.962Z" fill="#00B9F2"/>
<path d="M230.3 173.962C223.2 170.962 219.9 162.862 222.9 155.762C225.9 148.662 234.1 145.362 241.2 148.362C248.2 151.362 251.6 159.562 248.6 166.562C245.6 173.662 237.4 176.962 230.3 173.962Z" fill="#00B9F2"/>
<path d="M231.9 170.163C227 168.063 224.6 162.363 226.7 157.363C228.8 152.363 234.6 150.063 239.5 152.163C244.5 154.263 246.8 159.963 244.7 164.963C242.6 169.963 236.9 172.263 231.9 170.163Z" fill="white"/>
<path d="M269.1 243.963L269.4 249.063L269.7 254.063H269.1H268.6L268.8 249.063L269.1 243.963Z" fill="#00B9F2"/>
<path d="M269.4 253.262C272.7 253.262 275.4 255.962 275.4 259.262C275.4 262.562 272.7 265.262 269.4 265.262C266.1 265.262 263.4 262.562 263.4 259.262C263.4 255.962 266.1 253.262 269.4 253.262Z" fill="#00B9F2"/>
<path d="M269.4 255.062C271.7 255.062 273.6 256.963 273.6 259.263C273.6 261.563 271.7 263.462 269.4 263.462C267 263.462 265.2 261.563 265.2 259.263C265.2 256.963 267 255.062 269.4 255.062Z" fill="white"/>
<path d="M314.9 235.463L320.1 223.463L325.3 211.463L326.6 212.063L327.9 212.663L321.4 224.063L314.9 235.463Z" fill="#00B9F2"/>
<path d="M327.699 194.362C333.099 193.162 338.399 196.662 339.599 202.062C340.699 207.462 337.299 212.762 331.899 213.862C326.499 215.062 321.199 211.562 319.999 206.262C318.899 200.862 322.299 195.462 327.699 194.362Z" fill="#00B9F2"/>
<path d="M328.3 197.262C332.1 196.462 335.8 198.862 336.6 202.662C337.4 206.462 335 210.162 331.3 210.962C327.5 211.762 323.8 209.362 322.9 205.562C322.1 201.762 324.5 198.062 328.3 197.262Z" fill="white"/>
<path d="M308.5 240.263C315 238.863 321.4 242.963 322.8 249.463C324.2 256.063 320.1 262.463 313.6 263.863C307 265.263 300.6 261.063 299.2 254.563C297.8 248.063 302 241.663 308.5 240.263Z" fill="#00B9F2"/>
<path d="M309.3 243.763C313.8 242.763 318.3 245.663 319.3 250.263C320.3 254.863 317.4 259.362 312.8 260.362C308.2 261.262 303.7 258.362 302.8 253.862C301.8 249.262 304.7 244.763 309.3 243.763Z" fill="white"/>
<path d="M323.3 195.562L312.6 185.462L301.9 175.462L303.1 174.362L304.2 173.262L313.7 184.362L323.3 195.562Z" fill="#00B9F2"/>
<path d="M288.5 162.663L280.5 155.163L272.4 147.663L273.3 146.763L274.2 145.963L281.3 154.363L288.5 162.663Z" fill="#00B9F2"/>
<path d="M289.5 184.962L294 179.162L298.4 173.262L299 173.762L299.6 174.362L294.6 179.662L289.5 184.962Z" fill="#00B9F2"/>
<path d="M300 155.763C305.4 154.663 310.7 158.063 311.9 163.463C313 168.863 309.6 174.163 304.2 175.363C298.8 176.463 293.5 173.063 292.3 167.663C291.2 162.263 294.6 156.963 300 155.763Z" fill="#00B9F2"/>
<path d="M300.6 158.763C304.4 157.863 308.1 160.363 308.9 164.063C309.8 167.863 307.4 171.563 303.6 172.463C299.8 173.263 296.1 170.863 295.3 167.063C294.4 163.263 296.9 159.563 300.6 158.763Z" fill="white"/>
</svg>
