<svg width="244" height="63" viewBox="0 0 244 63" fill="none" xmlns="http://www.w3.org/2000/svg">
<path fill-rule="evenodd" clip-rule="evenodd" d="M1 2.56255H8.19995V9.16255C10.4666 6.49588 13.1 4.52921 16.1 3.26254C19.1 1.99588 22.5334 1.36255 26.4 1.36255C30.6667 1.36255 34.4666 2.16254 37.7999 3.76254C41.1333 5.36254 43.7333 7.62921 45.6 10.5625C46.9333 12.6292 47.9 15.0625 48.5 17.8625C49.1 20.6625 49.4 24.7959 49.4 30.2625V60.4625H42.1V28.0625C42.1 21.1959 40.7666 16.2292 38.1 13.1626C35.5 10.0959 31.3333 8.56255 25.6 8.56255C22.2 8.56255 19.2333 9.22921 16.7 10.5625C14.1666 11.8959 12.1666 13.8292 10.7 16.3625C9.76662 17.9625 9.13326 19.7625 8.79993 21.7625C8.39993 23.7625 8.19995 27.2959 8.19995 32.3625V60.4625H1V2.56255ZM118 33.9625H65.7C66.1666 40.2292 68.4666 45.3292 72.6 49.2625C76.6666 53.1292 81.7667 55.0625 87.9 55.0625C92.3 55.0625 96.2333 53.9292 99.7 51.6626C103.167 49.3959 105.833 46.2625 107.7 42.2625H116.2C113.533 48.6625 109.767 53.5625 104.9 56.9625C100.1 60.4292 94.5333 62.1626 88.2 62.1626C79.7333 62.1626 72.5999 59.1626 66.7999 53.1626C60.9333 47.1626 58 39.9292 58 31.4625C58 22.6625 60.8666 15.3959 66.6 9.66255C72.2666 3.86255 79.5667 0.96254 88.5 0.96254C97.1667 0.96254 104.267 3.96254 109.8 9.96254C115.267 15.9625 118 23.7625 118 33.3625V33.9625ZM109.8 27.7625C108.4 21.2292 105.8 16.3292 102 13.0625C98.2667 9.72921 93.4 8.06255 87.4 8.06255C81.7334 8.06255 76.9666 9.82922 73.1 13.3625C69.1666 16.8959 66.7667 21.6959 65.9 27.7625H109.8ZM126.6 2.66255H133.8V9.26254C136.067 6.59588 138.7 4.66254 141.7 3.46254C144.7 2.12921 148.133 1.49588 152 1.56255C156.267 1.56255 160.067 2.32922 163.4 3.86255C166.733 5.46255 169.333 7.72922 171.2 10.6626C172.533 12.7292 173.5 15.1625 174.1 17.9625C174.7 20.7625 175 24.8959 175 30.3625V60.5625H167.7V28.1626C167.7 21.2959 166.367 16.3292 163.7 13.2625C161.1 10.1959 156.933 8.66255 151.2 8.66255C147.8 8.66255 144.833 9.32922 142.3 10.6626C139.767 11.9959 137.767 13.9292 136.3 16.4625C135.367 18.0625 134.733 19.8625 134.4 21.8625C134 23.8625 133.8 27.3959 133.8 32.4625V60.5625H126.6V2.66255ZM183.6 31.7625C183.6 23.2292 186.533 15.9625 192.4 9.96254C198.2 3.89587 205.1 0.862549 213.1 0.862549C221.433 0.862549 228.567 3.82921 234.5 9.76254C240.433 15.6959 243.4 22.7625 243.4 30.9625C243.4 39.6292 240.5 46.9959 234.7 53.0625C228.9 59.1959 221.867 62.2625 213.6 62.2625C205.267 62.2625 198.167 59.2625 192.3 53.2625C186.5 47.2625 183.6 40.0959 183.6 31.7625ZM191.4 31.5625C191.4 38.2959 193.533 43.8959 197.8 48.3625C202.067 52.8959 207.333 55.1626 213.6 55.1626C219.8 55.1626 225.033 52.8959 229.3 48.3625C233.5 43.8959 235.6 38.2959 235.6 31.5625C235.6 24.6959 233.467 19.0626 229.2 14.6626C224.933 10.2626 219.533 8.06255 213 8.06255C207.067 8.06255 202 10.3292 197.8 14.8625C193.533 19.3292 191.4 24.8959 191.4 31.5625Z" fill="white" stroke="white" stroke-width="0.9" stroke-miterlimit="100"/>
</svg>
